<?xml version="1.0" encoding="UTF-8"?>
<svg width="90px" height="12px" viewBox="0 0 118 22" version="1.1" xmlns="http://www.w3.org/2000/svg" xmlns:xlink="http://www.w3.org/1999/xlink">
    <!-- Generator: Sketch 52.2 (67145) - http://www.bohemiancoding.com/sketch -->
    <title>Urbica_logo</title>
    <desc>Created with Sketch.</desc>
    <g id="Page-1" stroke="none" stroke-width="1" fill="none" fill-rule="evenodd">
        <g id="screen_new_2" transform="translate(-689.000000, -4447.000000)" fill="#FFFFFF">
            <g id="4" transform="translate(0.000000, 3600.000000)">
                <g id="Footer" transform="translate(0.000000, 814.000000)">
                    <g id="Group" transform="translate(593.000000, 33.000000)">
                        <g id="Urbica_logo" transform="translate(96.000000, 0.000000)">
                            <g id="Urbica">
                                <polygon id="Fill-1" points="68.2359718 22 72.1351702 22 72.1351702 0 68.2359718 0"></polygon>
                                <path d="M107.436189,0 L99.4295589,22 L102.877808,22 L105.144959,15.6108164 L112.236618,15.6108164 L114.503769,22 L117.950751,22 L109.944122,0 L107.436189,0 Z M108.690789,5.30592712 L111.131556,12.4219327 L106.247487,12.4219327 L108.690789,5.30592712 Z" id="Fill-2"></path>
                                <polygon id="Fill-3" points="82.9712048 0 77.0091682 5.7870034 77.0091682 16.206654 82.9751246 22 90.4070914 22 94.5555609 17.9724384 92.219352 15.7043187 89.0377698 18.7957101 84.341833 18.7957101 80.3109579 14.8797786 80.3109579 7.11768437 84.341833 3.20302139 89.0377698 3.20302139 92.219352 6.29060716 94.5555609 4.02375598 90.4097046 0"></polygon>
                                <path d="M46.7903807,0 L46.7903807,22 L57.6555189,22 L62.3871742,17.3766369 L62.3871742,13.1162388 L59.2769098,10.0792616 L61.598565,7.81136429 L61.598565,4.04718777 L57.4268612,0 L46.7903807,0 Z M50.1202084,3.21084511 L56.0964891,3.21084511 L58.3155082,5.37594462 L58.3155082,6.48387655 L56.0341279,8.7124315 L50.1202084,8.7124315 L50.1202084,3.21084511 Z M50.1202084,11.9321604 L56.5317183,11.9321604 L59.1093141,14.448803 L59.1093141,16.0440727 L56.3108557,18.7764638 L50.1202084,18.7802711 L50.1202084,11.9321604 Z" id="Fill-4"></path>
                                <path d="M24.3699899,0 L24.3699899,22 L27.5867815,22 L27.5867815,13.1581194 L32.5990501,13.1581194 L36.4097302,22 L39.9667835,22 L35.9413995,12.8319585 L39.9529721,8.7568503 L39.9529721,4.3124315 L35.6852615,0 L24.3699899,0 Z M27.5867815,3.21084511 L34.3756933,3.21084511 L36.7813814,5.64245746 L36.7813814,7.4496683 L34.3217035,9.93585232 L27.5867815,9.93585232 L27.5867815,3.21084511 Z" id="Fill-5"></path>
                                <polygon id="Fill-6" points="13.3394414 0 13.3394414 16.04682 10.6816972 18.76146 10.6804292 18.76146 5.88989595 18.76146 3.23215173 16.04682 3.23215173 0 0 0 0 17.3800381 4.61681618 22 6.30199847 22 11.953509 22 16.5715932 17.3800381 16.5715932 0"></polygon>
                            </g>
                        </g>
                    </g>
                </g>
            </g>
        </g>
    </g>
</svg>