<svg xmlns="http://www.w3.org/2000/svg" width="100" height="17" viewBox="0 0 122 23">
    <g fill="#ffffff" fill-rule="evenodd">
        <path d="M70.747 23h3.999V0h-3.999zM110.944 0l-8.21 23h3.536l2.325-6.68h7.272l2.325 6.68h3.534l-8.21-23h-2.572zm1.287 5.547l2.503 7.44h-5.009l2.506-7.44zM85.857 0l-6.113 6.05v10.893L85.86 23h7.621l4.254-4.21-2.395-2.372-3.263 3.232h-4.815l-4.134-4.094V7.441l4.134-4.092h4.815l3.263 3.228 2.395-2.37L93.485 0zM48.757 0v23h11.141l4.852-4.834v-4.454l-3.19-3.175 2.381-2.37V4.23L59.664 0H48.757zm3.414 3.357H58.3l2.276 2.263V6.78l-2.34 2.33h-6.064V3.356zm0 9.118h6.575l2.643 2.63v1.668l-2.87 2.857-6.348.004v-7.16zM25.766 0v23h3.299v-9.244h5.14L38.112 23h3.648l-4.128-9.585 4.113-4.26V4.508L37.37 0H25.766zm3.299 3.357h6.961l2.467 2.542v1.89l-2.522 2.598h-6.906v-7.03zM14.455 0v16.776l-2.725 2.838H6.816l-2.725-2.838V0H.777v18.17L5.51 23h7.523l4.736-4.83V0z"/>
    </g>
</svg>
