<svg xmlns="http://www.w3.org/2000/svg" width="22" height="22" viewBox="0 0 28 26">
    <path fill="#ffffff" fill-rule="evenodd" d="M13.546 0c-7.18 0-13 5.968-13 13.33 0 5.888 3.724 10.885 8.89 12.647.65.123.888-.29.888-.641 0-.318-.012-1.368-.018-2.482-3.616.807-4.38-1.572-4.38-1.572-.59-1.541-1.443-1.95-1.443-1.95-1.18-.828.089-.811.089-.811 1.305.094 1.993 1.374 1.993 1.374 1.16 2.037 3.041 1.448 3.783 1.108.117-.862.453-1.45.825-1.783-2.887-.337-5.923-1.48-5.923-6.587 0-1.455.508-2.644 1.34-3.578-.135-.335-.58-1.691.126-3.527 0 0 1.091-.358 3.576 1.366a12.172 12.172 0 0 1 3.254-.448c1.104.005 2.217.153 3.256.448 2.482-1.724 3.572-1.366 3.572-1.366.707 1.836.262 3.192.127 3.527.834.934 1.338 2.123 1.338 3.578 0 5.12-3.041 6.247-5.936 6.577.466.413.882 1.224.882 2.468 0 1.783-.015 3.219-.015 3.658 0 .355.234.77.893.64 5.162-1.765 8.882-6.76 8.882-12.647 0-7.361-5.82-13.329-13-13.329"/>
</svg>
