<?xml version="1.0" encoding="UTF-8" standalone="no"?>
<svg
   xmlnsDc="http://purl.org/dc/elements/1.1/"
   xmlnsCc="http://creativecommons.org/ns#"
   xmlnsRdf="http://www.w3.org/1999/02/22-rdf-syntax-ns#"
   xmlnsSvg="http://www.w3.org/2000/svg"
   xmlns="http://www.w3.org/2000/svg"
   xmlnsSodipodi="http://sodipodi.sourceforge.net/DTD/sodipodi-0.dtd"
   xmlnsInkscape="http://www.inkscape.org/namespaces/inkscape"
   id="maplibre"
   width="353"
   height="76"
   viewBox="0 0 353 76"
   fill="none"
   version="1.1"
   sodipodiDocname="maplibre-logo-big.svg.2022_03_03_16_41_32.1.svg"
   inkscapeVersion="0.92.5 (2060ec1f9f, 2020-04-08)">
  <metadata
     id="metadata905">
    <rdfRDF>
      <ccWork
         rdfAbout="">
        <dcFormat>image/svg+xml</dcFormat>
        <dcType
           rdfResource="http://purl.org/dc/dcmitype/StillImage" />
      </ccWork>
    </rdfRDF>
  </metadata>
  <defs
     id="defs903" />
  <sodipodiNamedview
     pagecolor="#ffffff"
     bordercolor="#666666"
     borderopacity="1"
     objecttolerance="10"
     gridtolerance="10"
     guidetolerance="10"
     inkscapePageopacity="0"
     inkscapePageshadow="2"
     inkscapeWindow-width="1920"
     inkscapeWindow-height="1135"
     id="namedview901"
     showgrid="false"
     inkscapeZoom="2"
     inkscapeCx="82.544153"
     inkscapeCy="-30.91574"
     inkscapeWindow-x="0"
     inkscapeWindow-y="0"
     inkscapeWindow-maximized="1"
     inkscapeCurrent-layer="maplibre" />
  <path
     d="M74.2011 34.6488L71.014 27.4432L69.559 34.6488L64.8476 58.4136H57.157L67.6883 7.48912H68.5197L82.5153 34.9953L86.6724 44.2102L90.8295 34.9953L104.548 7.48912H105.31L116.257 58.4136H108.636L103.509 34.6488L101.984 27.4432L99.213 34.6488L86.8802 58.4136H86.4645L74.2011 34.6488Z"
     fill="#285DAA"
     id="path880" />
  <path
     d="M136.664 59.1064C133.8 59.1064 131.144 58.4367 128.696 57.0972C126.294 55.7115 124.354 53.7715 122.876 51.2772C121.444 48.7368 120.728 45.7806 120.728 42.4088C120.728 39.0831 121.352 36.1731 122.599 33.6788C123.892 31.1846 125.717 29.2446 128.072 27.8589C130.428 26.4732 133.199 25.7804 136.387 25.7804C138.234 25.7804 139.966 26.1037 141.583 26.7503C143.2 27.397 144.562 28.2053 145.671 29.1753C146.779 30.0991 147.518 31.0229 147.888 31.9467L148.026 26.6118H155.163V58.4136H148.096L147.957 52.8015C147.172 54.4643 145.74 55.9424 143.661 57.2357C141.583 58.4829 139.25 59.1064 136.664 59.1064ZM137.911 52.8708C140.544 52.8708 142.761 51.9701 144.562 50.1687C146.364 48.3211 147.264 45.9192 147.264 42.963V42.478C147.264 40.4919 146.849 38.7136 146.017 37.1431C145.186 35.5726 144.054 34.3486 142.622 33.471C141.19 32.5934 139.62 32.1546 137.911 32.1546C134.955 32.1546 132.668 33.1246 131.052 35.0645C129.435 36.9583 128.627 39.4295 128.627 42.478C128.627 45.5728 129.412 48.0901 130.982 50.0301C132.599 51.9239 134.908 52.8708 137.911 52.8708Z"
     fill="#285DAA"
     id="path882" />
  <path
     d="M165.364 26.6118H172.57V32.501C175.11 28.0206 179.082 25.7804 184.487 25.7804C188.967 25.7804 192.593 27.2122 195.364 30.076C198.136 32.8936 199.521 36.9814 199.521 42.3395C199.521 45.6652 198.829 48.5982 197.443 51.1387C196.103 53.6791 194.256 55.6422 191.9 57.0279C189.591 58.4136 187.004 59.1064 184.14 59.1064C181.461 59.1064 179.129 58.6445 177.142 57.7207C175.202 56.7508 173.678 55.3881 172.57 53.6329L172.639 75.2498H165.364V26.6118ZM182.408 52.8015C185.41 52.8015 187.72 51.8546 189.337 49.9608C190.953 48.0208 191.761 45.5497 191.761 42.5473C191.761 39.4064 190.953 36.9121 189.337 35.0645C187.766 33.1708 185.457 32.2239 182.408 32.2239C180.745 32.2239 179.175 32.6396 177.697 33.471C176.265 34.2562 175.11 35.411 174.232 36.9352C173.401 38.4133 172.985 40.1455 172.985 42.1316V42.6166C172.985 44.6028 173.401 46.3811 174.232 47.9516C175.11 49.4758 176.265 50.6768 177.697 51.5544C179.129 52.3858 180.699 52.8015 182.408 52.8015Z"
     fill="#285DAA"
     id="path884" />
  <path
     d="M207.644 7.48868H215.473V51.4846H230.093V58.4132H207.644V7.48868Z"
     fill="#95BEFA"
     id="path886" />
  <path
     d="M237.62 26.6113H245.38V58.4132H237.62V26.6113ZM241.43 20.6528C239.999 20.6528 238.798 20.1678 237.828 19.1978C236.858 18.2279 236.373 17.0269 236.373 15.595C236.373 14.3017 236.858 13.1931 237.828 12.2693C238.798 11.3455 239.999 10.8836 241.43 10.8836C242.816 10.8836 243.994 11.3455 244.964 12.2693C245.934 13.1931 246.419 14.3017 246.419 15.595C246.419 17.0269 245.934 18.2279 244.964 19.1978C244.04 20.1678 242.862 20.6528 241.43 20.6528Z"
     fill="#95BEFA"
     id="path888" />
  <path
     d="M274.585 59.106C271.999 59.106 269.666 58.4824 267.588 57.2353C265.555 55.942 264.147 54.4639 263.361 52.8011L263.223 58.4132H256.017V7.48868H263.361V27.0963L263.015 32.5006C263.8 30.653 265.324 29.0825 267.588 27.7892C269.897 26.4497 272.391 25.7799 275.07 25.7799C278.211 25.7799 280.937 26.4959 283.246 27.9278C285.602 29.3135 287.403 31.2765 288.65 33.817C289.897 36.3112 290.521 39.2212 290.521 42.5469C290.521 45.9188 289.782 48.8518 288.304 51.3461C286.872 53.8403 284.932 55.7572 282.484 57.0967C280.082 58.4362 277.449 59.106 274.585 59.106ZM273.338 52.8703C276.341 52.8703 278.65 51.9235 280.267 50.0297C281.883 48.0897 282.692 45.5954 282.692 42.5469C282.692 39.4522 281.883 36.9579 280.267 35.0641C278.696 33.1241 276.387 32.1541 273.338 32.1541C270.706 32.1541 268.488 33.0779 266.687 34.9255C264.886 36.7269 263.985 39.1057 263.985 42.0619V42.5469C263.985 44.5331 264.401 46.3114 265.232 47.8818C266.11 49.4523 267.241 50.6763 268.627 51.5539C270.059 52.4315 271.629 52.8703 273.338 52.8703Z"
     fill="#95BEFA"
     id="path890" />
  <path
     d="M298.294 26.6113H305.777V32.847C306.516 30.7222 307.717 29.0132 309.38 27.7199C311.042 26.4266 312.936 25.7799 315.061 25.7799C316.539 25.7799 317.555 25.9185 318.109 26.1956L317.07 33.7477C316.654 33.4706 315.754 33.332 314.368 33.332C312.197 33.332 310.211 34.0248 308.41 35.4105C306.654 36.7962 305.777 39.0133 305.777 42.0619V58.4132H298.294V26.6113Z"
     fill="#95BEFA"
     id="path892" />
  <path
     d="M338.436 59.106C334.648 59.106 331.484 58.367 328.944 56.8889C326.403 55.3646 324.533 53.3553 323.332 50.8611C322.131 48.3206 321.53 45.5492 321.53 42.5469C321.53 39.175 322.223 36.2189 323.609 33.6784C325.041 31.138 327.004 29.198 329.498 27.8585C331.992 26.4728 334.81 25.7799 337.951 25.7799C342.847 25.7799 346.473 27.1425 348.829 29.8677C351.231 32.5468 352.431 36.3343 352.431 41.2305C352.431 42.4776 352.362 43.7709 352.224 45.1104H329.36C329.868 47.928 330.861 49.9604 332.339 51.2075C333.863 52.4546 335.965 53.0782 338.644 53.0782C340.861 53.0782 342.685 52.8934 344.117 52.5239C345.549 52.1544 346.866 51.6463 348.067 50.9997L350.353 56.3346C349.198 57.0736 347.628 57.7203 345.642 58.2746C343.655 58.8289 341.254 59.106 338.436 59.106ZM345.157 39.9141C345.203 37.0503 344.579 35.041 343.286 33.8863C341.993 32.6853 340.145 32.0849 337.743 32.0849C332.893 32.0849 330.099 34.6946 329.36 39.9141H345.157Z"
     fill="#95BEFA"
     id="path894" />
  <path
     fill-rule="evenodd"
     clip-rule="evenodd"
     d="M0.908997 19.5101C0.908997 8.77388 10.2327 0.0385742 21.6945 0.0385742C33.1563 0.0385742 42.48 8.77388 42.48 19.5101C42.48 35.6432 25.4822 49.2643 22.8108 51.4049C22.6447 51.538 22.534 51.6268 22.4862 51.6689C22.2628 51.8643 21.9787 51.9626 21.6945 51.9626C21.4103 51.9626 21.1261 51.8643 20.9029 51.6689C20.8551 51.6268 20.7445 51.5381 20.5785 51.4051C17.9078 49.265 0.908997 35.6437 0.908997 19.5101ZM21.6944 30.7917C27.3699 30.7917 31.9709 26.1217 31.9709 20.3609C31.9709 14.6001 27.3699 9.93008 21.6944 9.93008C16.0188 9.93008 11.4179 14.6001 11.4179 20.3609C11.4179 26.1217 16.0188 30.7917 21.6944 30.7917Z"
     fill="#95BEFA"
     id="path896" />
  <path
     style="fill:#005bbb;stroke-width:1"
     d="m 12.166016,53.998047 a 1.5703904,0.78509153 0 0 0 -1.570313,0.785052 v 6.613385 h 22.197266 v -6.613385 a 1.5703904,0.78509153 0 0 0 -1.570313,-0.785052 z"
     id="rect957"
     inkscapeConnector-curvature="0" />
  <path
     style="fill:#ffd500;stroke-width:1"
     d="M 10.595703 61.396484 L 10.595703 67.226562 A 1.5703904 1.5703904 0 0 0 12.166016 68.796875 A 1.5703904 1.5703904 0 0 0 12.183594 68.794922 L 12.183594 68.796875 L 31.222656 68.796875 A 1.5703904 1.5703904 0 0 0 32.792969 67.226562 L 32.792969 61.396484 L 10.595703 61.396484 z "
     id="rect959" />
</svg>
