<svg xmlns="http://www.w3.org/2000/svg" xmlns:xlink="http://www.w3.org/1999/xlink" width="525" height="420" viewBox="0 0 525 420">
    <defs>
        <path id="b" d="M51.313 282.239L.556 321.627l67.267-25.26 55.655-39.06z"/>
        <filter id="a" width="113.8%" height="128%" x="-6.9%" y="-7%" filterUnits="objectBoundingBox">
            <feOffset dy="5" in="SourceAlpha" result="shadowOffsetOuter1"/>
            <feGaussianBlur in="shadowOffsetOuter1" result="shadowBlurOuter1" stdDeviation="2"/>
            <feComposite in="shadowBlurOuter1" in2="SourceAlpha" operator="out" result="shadowBlurOuter1"/>
            <feColorMatrix in="shadowBlurOuter1" values="0 0 0 0 0 0 0 0 0 0 0 0 0 0 0 0 0 0 0.5 0"/>
        </filter>
        <path id="d" d="M45.201 303.31l-34.189 40.496L57.82 317.18l39.086-40.168z"/>
        <filter id="c" width="119.8%" height="126.9%" x="-9.9%" y="-6.7%" filterUnits="objectBoundingBox">
            <feOffset dy="5" in="SourceAlpha" result="shadowOffsetOuter1"/>
            <feGaussianBlur in="shadowOffsetOuter1" result="shadowBlurOuter1" stdDeviation="2"/>
            <feComposite in="shadowBlurOuter1" in2="SourceAlpha" operator="out" result="shadowBlurOuter1"/>
            <feColorMatrix in="shadowBlurOuter1" values="0 0 0 0 0 0 0 0 0 0 0 0 0 0 0 0 0 0 0.5 0"/>
        </filter>
        <path id="f" d="M38.297 324.586l-17.62 41.602 26.346-27.993 22.518-41.276z"/>
        <filter id="e" width="134.8%" height="126%" x="-17.4%" y="-6.5%" filterUnits="objectBoundingBox">
            <feOffset dy="5" in="SourceAlpha" result="shadowOffsetOuter1"/>
            <feGaussianBlur in="shadowOffsetOuter1" result="shadowBlurOuter1" stdDeviation="2"/>
            <feComposite in="shadowBlurOuter1" in2="SourceAlpha" operator="out" result="shadowBlurOuter1"/>
            <feColorMatrix in="shadowBlurOuter1" values="0 0 0 0 0 0 0 0 0 0 0 0 0 0 0 0 0 0 0.5 0"/>
        </filter>
        <path id="h" d="M30.68 346.342l-1.051 42.71 5.886-29.36 5.95-42.383z"/>
        <filter id="g" width="243.6%" height="125.1%" x="-71.8%" y="-6.3%" filterUnits="objectBoundingBox">
            <feOffset dy="5" in="SourceAlpha" result="shadowOffsetOuter1"/>
            <feGaussianBlur in="shadowOffsetOuter1" result="shadowBlurOuter1" stdDeviation="2"/>
            <feComposite in="shadowBlurOuter1" in2="SourceAlpha" operator="out" result="shadowBlurOuter1"/>
            <feColorMatrix in="shadowBlurOuter1" values="0 0 0 0 0 0 0 0 0 0 0 0 0 0 0 0 0 0 0.5 0"/>
        </filter>
        <path id="j" d="M22.36 368.302l15.516 43.817-14.574-30.728-10.619-43.49z"/>
        <filter id="i" width="167.5%" height="124.3%" x="-33.7%" y="-6.1%" filterUnits="objectBoundingBox">
            <feOffset dy="5" in="SourceAlpha" result="shadowOffsetOuter1"/>
            <feGaussianBlur in="shadowOffsetOuter1" result="shadowBlurOuter1" stdDeviation="2"/>
            <feComposite in="shadowBlurOuter1" in2="SourceAlpha" operator="out" result="shadowBlurOuter1"/>
            <feColorMatrix in="shadowBlurOuter1" values="0 0 0 0 0 0 0 0 0 0 0 0 0 0 0 0 0 0 0.5 0"/>
        </filter>
        <path id="l" d="M167.135 248.154l-71.218 38.02 50.699-26.366 76.115-37.693z"/>
        <filter id="k" width="113.4%" height="128.1%" x="-6.7%" y="-7%" filterUnits="objectBoundingBox">
            <feOffset dy="5" in="SourceAlpha" result="shadowOffsetOuter1"/>
            <feGaussianBlur in="shadowOffsetOuter1" result="shadowBlurOuter1" stdDeviation="2"/>
            <feComposite in="shadowBlurOuter1" in2="SourceAlpha" operator="out" result="shadowBlurOuter1"/>
            <feColorMatrix in="shadowBlurOuter1" values="0 0 0 0 0 0 0 0 0 0 0 0 0 0 0 0 0 0 0.5 0"/>
        </filter>
        <path id="n" d="M142.315 259.463l-54.65 39.128 30.239-27.733 59.547-38.801z"/>
        <filter id="m" width="118.9%" height="127.1%" x="-9.5%" y="-6.8%" filterUnits="objectBoundingBox">
            <feOffset dy="5" in="SourceAlpha" result="shadowOffsetOuter1"/>
            <feGaussianBlur in="shadowOffsetOuter1" result="shadowBlurOuter1" stdDeviation="2"/>
            <feComposite in="shadowBlurOuter1" in2="SourceAlpha" operator="out" result="shadowBlurOuter1"/>
            <feColorMatrix in="shadowBlurOuter1" values="0 0 0 0 0 0 0 0 0 0 0 0 0 0 0 0 0 0 0.5 0"/>
        </filter>
        <path id="p" d="M118.354 269.2l-38.081 40.236 9.778-29.101 42.978-39.908z"/>
        <filter id="o" width="132.2%" height="126.1%" x="-16.1%" y="-6.5%" filterUnits="objectBoundingBox">
            <feOffset dy="5" in="SourceAlpha" result="shadowOffsetOuter1"/>
            <feGaussianBlur in="shadowOffsetOuter1" result="shadowBlurOuter1" stdDeviation="2"/>
            <feComposite in="shadowBlurOuter1" in2="SourceAlpha" operator="out" result="shadowBlurOuter1"/>
            <feColorMatrix in="shadowBlurOuter1" values="0 0 0 0 0 0 0 0 0 0 0 0 0 0 0 0 0 0 0.5 0"/>
        </filter>
        <path id="r" d="M92.35 281.194l-21.513 41.343-10.682-30.469 26.41-41.015z"/>
        <filter id="q" width="152.8%" height="125.2%" x="-26.4%" y="-6.3%" filterUnits="objectBoundingBox">
            <feOffset dy="5" in="SourceAlpha" result="shadowOffsetOuter1"/>
            <feGaussianBlur in="shadowOffsetOuter1" result="shadowBlurOuter1" stdDeviation="2"/>
            <feComposite in="shadowBlurOuter1" in2="SourceAlpha" operator="out" result="shadowBlurOuter1"/>
            <feColorMatrix in="shadowBlurOuter1" values="0 0 0 0 0 0 0 0 0 0 0 0 0 0 0 0 0 0 0.5 0"/>
        </filter>
        <path id="t" d="M67.26 291.616l-4.945 42.45-31.142-31.836 9.841-42.122z"/>
        <filter id="s" width="147.1%" height="124.3%" x="-23.6%" y="-6.1%" filterUnits="objectBoundingBox">
            <feOffset dy="5" in="SourceAlpha" result="shadowOffsetOuter1"/>
            <feGaussianBlur in="shadowOffsetOuter1" result="shadowBlurOuter1" stdDeviation="2"/>
            <feComposite in="shadowBlurOuter1" in2="SourceAlpha" operator="out" result="shadowBlurOuter1"/>
            <feColorMatrix in="shadowBlurOuter1" values="0 0 0 0 0 0 0 0 0 0 0 0 0 0 0 0 0 0 0.5 0"/>
        </filter>
        <path id="v" d="M281.987 214.956L190.31 251.61l34.13-27.473 96.576-36.327z"/>
        <filter id="u" width="113%" height="128.2%" x="-6.5%" y="-7.1%" filterUnits="objectBoundingBox">
            <feOffset dy="5" in="SourceAlpha" result="shadowOffsetOuter1"/>
            <feGaussianBlur in="shadowOffsetOuter1" result="shadowBlurOuter1" stdDeviation="2"/>
            <feComposite in="shadowBlurOuter1" in2="SourceAlpha" operator="out" result="shadowBlurOuter1"/>
            <feColorMatrix in="shadowBlurOuter1" values="0 0 0 0 0 0 0 0 0 0 0 0 0 0 0 0 0 0 0.5 0"/>
        </filter>
        <path id="x" d="M240.33 214.931l-75.11 37.76 13.67-28.84 80.008-37.433z"/>
        <filter id="w" width="118.1%" height="127.2%" x="-9.1%" y="-6.8%" filterUnits="objectBoundingBox">
            <feOffset dy="5" in="SourceAlpha" result="shadowOffsetOuter1"/>
            <feGaussianBlur in="shadowOffsetOuter1" result="shadowBlurOuter1" stdDeviation="2"/>
            <feComposite in="shadowBlurOuter1" in2="SourceAlpha" operator="out" result="shadowBlurOuter1"/>
            <feColorMatrix in="shadowBlurOuter1" values="0 0 0 0 0 0 0 0 0 0 0 0 0 0 0 0 0 0 0.5 0"/>
        </filter>
        <path id="z" d="M197.614 214.702l-58.54 38.869-6.791-30.208 63.439-38.541z"/>
        <filter id="y" width="126%" height="126.2%" x="-13%" y="-6.5%" filterUnits="objectBoundingBox">
            <feOffset dy="5" in="SourceAlpha" result="shadowOffsetOuter1"/>
            <feGaussianBlur in="shadowOffsetOuter1" result="shadowBlurOuter1" stdDeviation="2"/>
            <feComposite in="shadowBlurOuter1" in2="SourceAlpha" operator="out" result="shadowBlurOuter1"/>
            <feColorMatrix in="shadowBlurOuter1" values="0 0 0 0 0 0 0 0 0 0 0 0 0 0 0 0 0 0 0.5 0"/>
        </filter>
        <path id="B" d="M155.878 214.474l-41.973 39.975-27.25-31.575 46.87-39.648z"/>
        <filter id="A" width="124.6%" height="125.3%" x="-12.3%" y="-6.3%" filterUnits="objectBoundingBox">
            <feOffset dy="5" in="SourceAlpha" result="shadowOffsetOuter1"/>
            <feGaussianBlur in="shadowOffsetOuter1" result="shadowBlurOuter1" stdDeviation="2"/>
            <feComposite in="shadowBlurOuter1" in2="SourceAlpha" operator="out" result="shadowBlurOuter1"/>
            <feColorMatrix in="shadowBlurOuter1" values="0 0 0 0 0 0 0 0 0 0 0 0 0 0 0 0 0 0 0.5 0"/>
        </filter>
        <path id="D" d="M111.613 215.765l-25.404 41.082-47.711-32.942L68.8 183.149z"/>
        <filter id="C" width="123.3%" height="124.4%" x="-11.6%" y="-6.1%" filterUnits="objectBoundingBox">
            <feOffset dy="5" in="SourceAlpha" result="shadowOffsetOuter1"/>
            <feGaussianBlur in="shadowOffsetOuter1" result="shadowBlurOuter1" stdDeviation="2"/>
            <feComposite in="shadowBlurOuter1" in2="SourceAlpha" operator="out" result="shadowBlurOuter1"/>
            <feColorMatrix in="shadowBlurOuter1" values="0 0 0 0 0 0 0 0 0 0 0 0 0 0 0 0 0 0 0.5 0"/>
        </filter>
        <path id="F" d="M397.564 181.305L285.426 216.59l17.561-28.58 117.036-34.96z"/>
        <filter id="E" width="112.6%" height="128.3%" x="-6.3%" y="-7.1%" filterUnits="objectBoundingBox">
            <feOffset dy="5" in="SourceAlpha" result="shadowOffsetOuter1"/>
            <feGaussianBlur in="shadowOffsetOuter1" result="shadowBlurOuter1" stdDeviation="2"/>
            <feComposite in="shadowBlurOuter1" in2="SourceAlpha" operator="out" result="shadowBlurOuter1"/>
            <feColorMatrix in="shadowBlurOuter1" values="0 0 0 0 0 0 0 0 0 0 0 0 0 0 0 0 0 0 0.5 0"/>
        </filter>
        <path id="H" d="M338.3 170.196l-95.57 36.394-2.899-29.948 100.467-36.067z"/>
        <filter id="G" width="116.9%" height="127.3%" x="-8.5%" y="-6.8%" filterUnits="objectBoundingBox">
            <feOffset dy="5" in="SourceAlpha" result="shadowOffsetOuter1"/>
            <feGaussianBlur in="shadowOffsetOuter1" result="shadowBlurOuter1" stdDeviation="2"/>
            <feComposite in="shadowBlurOuter1" in2="SourceAlpha" operator="out" result="shadowBlurOuter1"/>
            <feColorMatrix in="shadowBlurOuter1" values="0 0 0 0 0 0 0 0 0 0 0 0 0 0 0 0 0 0 0.5 0"/>
        </filter>
        <path id="J" d="M276.875 160.204l-79.001 37.501-23.359-31.315 83.9-37.173z"/>
        <filter id="I" width="116.6%" height="126.3%" x="-8.3%" y="-6.6%" filterUnits="objectBoundingBox">
            <feOffset dy="5" in="SourceAlpha" result="shadowOffsetOuter1"/>
            <feGaussianBlur in="shadowOffsetOuter1" result="shadowBlurOuter1" stdDeviation="2"/>
            <feComposite in="shadowBlurOuter1" in2="SourceAlpha" operator="out" result="shadowBlurOuter1"/>
            <feColorMatrix in="shadowBlurOuter1" values="0 0 0 0 0 0 0 0 0 0 0 0 0 0 0 0 0 0 0.5 0"/>
        </filter>
        <path id="L" d="M217.4 149.326l-62.433 38.608-43.82-32.683 67.331-38.28z"/>
        <filter id="K" width="116%" height="125.4%" x="-8%" y="-6.3%" filterUnits="objectBoundingBox">
            <feOffset dy="5" in="SourceAlpha" result="shadowOffsetOuter1"/>
            <feGaussianBlur in="shadowOffsetOuter1" result="shadowBlurOuter1" stdDeviation="2"/>
            <feComposite in="shadowBlurOuter1" in2="SourceAlpha" operator="out" result="shadowBlurOuter1"/>
            <feColorMatrix in="shadowBlurOuter1" values="0 0 0 0 0 0 0 0 0 0 0 0 0 0 0 0 0 0 0.5 0"/>
        </filter>
        <path id="N" d="M156.945 138.447l-45.864 39.715-64.28-34.05 50.763-39.388z"/>
        <filter id="M" width="115.4%" height="124.5%" x="-7.7%" y="-6.1%" filterUnits="objectBoundingBox">
            <feOffset dy="5" in="SourceAlpha" result="shadowOffsetOuter1"/>
            <feGaussianBlur in="shadowOffsetOuter1" result="shadowBlurOuter1" stdDeviation="2"/>
            <feComposite in="shadowBlurOuter1" in2="SourceAlpha" operator="out" result="shadowBlurOuter1"/>
            <feColorMatrix in="shadowBlurOuter1" values="0 0 0 0 0 0 0 0 0 0 0 0 0 0 0 0 0 0 0.5 0"/>
        </filter>
        <path id="P" d="M512.513 147.877l-132.598 33.92.993-29.688 137.496-33.592z"/>
        <filter id="O" width="112.3%" height="128.4%" x="-6.1%" y="-7.1%" filterUnits="objectBoundingBox">
            <feOffset dy="5" in="SourceAlpha" result="shadowOffsetOuter1"/>
            <feGaussianBlur in="shadowOffsetOuter1" result="shadowBlurOuter1" stdDeviation="2"/>
            <feComposite in="shadowBlurOuter1" in2="SourceAlpha" operator="out" result="shadowBlurOuter1"/>
            <feColorMatrix in="shadowBlurOuter1" values="0 0 0 0 0 0 0 0 0 0 0 0 0 0 0 0 0 0 0.5 0"/>
        </filter>
        <path id="R" d="M435.3 126.348l-116.031 35.027-19.467-31.055 120.928-34.7z"/>
        <filter id="Q" width="112.5%" height="127.4%" x="-6.3%" y="-6.8%" filterUnits="objectBoundingBox">
            <feOffset dy="5" in="SourceAlpha" result="shadowOffsetOuter1"/>
            <feGaussianBlur in="shadowOffsetOuter1" result="shadowBlurOuter1" stdDeviation="2"/>
            <feComposite in="shadowBlurOuter1" in2="SourceAlpha" operator="out" result="shadowBlurOuter1"/>
            <feColorMatrix in="shadowBlurOuter1" values="0 0 0 0 0 0 0 0 0 0 0 0 0 0 0 0 0 0 0.5 0"/>
        </filter>
        <path id="T" d="M357.106 104.819l-99.462 36.134-39.927-32.423 104.36-35.806z"/>
        <filter id="S" width="112.2%" height="126.4%" x="-6.1%" y="-6.6%" filterUnits="objectBoundingBox">
            <feOffset dy="5" in="SourceAlpha" result="shadowOffsetOuter1"/>
            <feGaussianBlur in="shadowOffsetOuter1" result="shadowBlurOuter1" stdDeviation="2"/>
            <feComposite in="shadowBlurOuter1" in2="SourceAlpha" operator="out" result="shadowBlurOuter1"/>
            <feColorMatrix in="shadowBlurOuter1" values="0 0 0 0 0 0 0 0 0 0 0 0 0 0 0 0 0 0 0.5 0"/>
        </filter>
        <path id="V" d="M279.891 83.29l-82.893 37.24-60.387-33.789 87.79-36.914z"/>
        <filter id="U" width="111.9%" height="125.5%" x="-5.9%" y="-6.4%" filterUnits="objectBoundingBox">
            <feOffset dy="5" in="SourceAlpha" result="shadowOffsetOuter1"/>
            <feGaussianBlur in="shadowOffsetOuter1" result="shadowBlurOuter1" stdDeviation="2"/>
            <feComposite in="shadowBlurOuter1" in2="SourceAlpha" operator="out" result="shadowBlurOuter1"/>
            <feColorMatrix in="shadowBlurOuter1" values="0 0 0 0 0 0 0 0 0 0 0 0 0 0 0 0 0 0 0.5 0"/>
        </filter>
        <path id="X" d="M220.99 35.135l-66.325 38.348-80.848-35.157L145.039.306z"/>
        <filter id="W" width="111.6%" height="124.6%" x="-5.8%" y="-6.1%" filterUnits="objectBoundingBox">
            <feOffset dy="5" in="SourceAlpha" result="shadowOffsetOuter1"/>
            <feGaussianBlur in="shadowOffsetOuter1" result="shadowBlurOuter1" stdDeviation="2"/>
            <feComposite in="shadowBlurOuter1" in2="SourceAlpha" operator="out" result="shadowBlurOuter1"/>
            <feColorMatrix in="shadowBlurOuter1" values="0 0 0 0 0 0 0 0 0 0 0 0 0 0 0 0 0 0 0.5 0"/>
        </filter>
    </defs>
    <g fill="none" fill-rule="evenodd" opacity=".52">
        <g transform="translate(3)">
            <use fill="#000" filter="url(#a)" xlink:href="#b"/>
            <path fill="#5D2CE4" stroke="#000" stroke-linejoin="square" stroke-width=".4" d="M51.41 282.417L1.72 320.976l65.988-24.772 54.49-38.244-70.789 24.457z"/>
        </g>
        <g transform="translate(3)">
            <use fill="#000" filter="url(#c)" xlink:href="#d"/>
            <path fill="#5D2CE4" stroke="#000" stroke-linejoin="square" stroke-width=".4" d="M45.328 303.47l-33.439 39.607 45.787-26.037 38.245-39.303-50.593 25.734z"/>
        </g>
        <g transform="translate(3)">
            <use fill="#000" filter="url(#e)" xlink:href="#f"/>
            <path fill="#5D2CE4" stroke="#000" stroke-linejoin="square" stroke-width=".4" d="M38.463 324.706l-17.167 40.533 25.551-27.14 21.971-40.272-30.355 26.879z"/>
        </g>
        <g transform="translate(3)">
            <use fill="#000" filter="url(#g)" xlink:href="#h"/>
            <path fill="#5D2CE4" stroke="#000" stroke-linejoin="square" stroke-width=".4" d="M30.88 346.38l-.995 40.374 5.432-27.09 5.693-40.558-10.13 27.275z"/>
        </g>
        <g transform="translate(3)">
            <use fill="#000" filter="url(#i)" xlink:href="#j"/>
            <path fill="#5D2CE4" stroke="#000" stroke-linejoin="square" stroke-width=".4" d="M14.256 343.502l9.226 37.803 12.904 27.206-14.215-40.142-.002-.007-7.913-24.86z"/>
        </g>
        <g transform="translate(3)">
            <use fill="#000" filter="url(#k)" xlink:href="#l"/>
            <path fill="#5D2CE4" stroke="#000" stroke-linejoin="square" stroke-width=".4" d="M167.224 248.333l-38.57 20.591 17.873-9.295 59.672-29.55-38.975 18.254z"/>
        </g>
        <g transform="translate(3)">
            <use fill="#000" filter="url(#m)" xlink:href="#n"/>
            <path fill="#5D2CE4" stroke="#000" stroke-linejoin="square" stroke-width=".4" d="M142.195 259.303l31.423-24.51-55.579 36.212-27.802 25.499 51.958-37.201z"/>
        </g>
        <g transform="translate(3)">
            <use fill="#000" filter="url(#o)" xlink:href="#p"/>
            <path fill="#5D2CE4" stroke="#000" stroke-linejoin="square" stroke-width=".4" d="M118.188 269.084l14.15-27.744L90.24 280.4l-9.489 28.24 37.437-39.555z"/>
        </g>
        <g transform="translate(3)">
            <use fill="#000" filter="url(#q)" xlink:href="#r"/>
            <path fill="#5D2CE4" stroke="#000" stroke-linejoin="square" stroke-width=".4" d="M92.14 281.163l-5.677-29.582-26.087 40.514 10.497 29.94 21.267-40.872z"/>
        </g>
        <g transform="translate(3)">
            <use fill="#000" filter="url(#s)" xlink:href="#t"/>
            <path fill="#5D2CE4" stroke="#000" stroke-linejoin="square" stroke-width=".4" d="M67.05 291.678l-25.932-31.134-9.726 41.625 30.773 31.457 4.886-41.948z"/>
        </g>
        <g transform="translate(3)">
            <use fill="#000" filter="url(#u)" xlink:href="#v"/>
            <path fill="#5D2CE4" stroke="#000" stroke-linejoin="square" stroke-width=".4" d="M281.892 214.78l37.692-26.218-95.02 35.73-33.09 26.637 90.418-36.15z"/>
        </g>
        <g transform="translate(3)">
            <use fill="#000" filter="url(#w)" xlink:href="#x"/>
            <path fill="#5D2CE4" stroke="#000" stroke-linejoin="square" stroke-width=".4" d="M240.192 214.777l18.156-27.881-79.308 37.106-13.39 28.25 74.542-37.475z"/>
        </g>
        <g transform="translate(3)">
            <use fill="#000" filter="url(#y)" xlink:href="#z"/>
            <path fill="#5D2CE4" stroke="#000" stroke-linejoin="square" stroke-width=".4" d="M197.408 214.6l-1.865-29.436-63.033 38.295 6.695 29.784 58.203-38.643z"/>
        </g>
        <g transform="translate(3)">
            <use fill="#000" filter="url(#A)" xlink:href="#B"/>
            <path fill="#5D2CE4" stroke="#000" stroke-linejoin="square" stroke-width=".4" d="M155.614 214.449l-22.126-30.93-46.55 39.377 26.981 31.263 41.695-39.71z"/>
        </g>
        <g transform="translate(3)">
            <use fill="#000" filter="url(#C)" xlink:href="#D"/>
            <path fill="#5D2CE4" stroke="#000" stroke-linejoin="square" stroke-width=".4" d="M111.348 215.814L68.839 183.43l-30.057 40.427 47.367 32.705 25.199-40.75z"/>
        </g>
        <g transform="translate(3)">
            <use fill="#000" filter="url(#E)" xlink:href="#F"/>
            <path fill="#5D2CE4" stroke="#000" stroke-linejoin="square" stroke-width=".4" d="M397.445 181.132l22.026-27.707-116.353 34.755-17.242 28.06 111.57-35.108z"/>
        </g>
        <g transform="translate(3)">
            <use fill="#000" filter="url(#G)" xlink:href="#H"/>
            <path fill="#5D2CE4" stroke="#000" stroke-linejoin="square" stroke-width=".4" d="M338.108 170.055l1.97-29.188-100.033 35.91 2.858 29.532 95.205-36.254z"/>
        </g>
        <g transform="translate(3)">
            <use fill="#000" filter="url(#I)" xlink:href="#J"/>
            <path fill="#5D2CE4" stroke="#000" stroke-linejoin="square" stroke-width=".4" d="M276.591 160.118l-18.258-30.647-83.508 37 23.111 30.983 78.655-37.336z"/>
        </g>
        <g transform="translate(3)">
            <use fill="#000" filter="url(#K)" xlink:href="#L"/>
            <path fill="#5D2CE4" stroke="#000" stroke-linejoin="square" stroke-width=".4" d="M217.058 149.302l-38.601-32.09-66.944 38.062 43.464 32.418 62.081-38.39z"/>
        </g>
        <g transform="translate(3)">
            <use fill="#000" filter="url(#M)" xlink:href="#N"/>
            <path fill="#5D2CE4" stroke="#000" stroke-linejoin="square" stroke-width=".4" d="M156.6 138.48l-59.02-33.516L47.17 144.08l63.884 33.841 45.547-39.44z"/>
        </g>
        <g transform="translate(3)">
            <use fill="#000" filter="url(#O)" xlink:href="#P"/>
            <path fill="#5D2CE4" stroke="#000" stroke-linejoin="square" stroke-width=".4" d="M512.342 147.715l5.805-28.93-137.044 33.482-.98 29.27 132.22-33.822z"/>
        </g>
        <g transform="translate(3)">
            <use fill="#000" filter="url(#Q)" xlink:href="#R"/>
            <path fill="#5D2CE4" stroke="#000" stroke-linejoin="square" stroke-width=".4" d="M435.019 126.224l-14.397-30.365-120.51 34.58 19.245 30.7 115.662-34.915z"/>
        </g>
        <g transform="translate(3)">
            <use fill="#000" filter="url(#S)" xlink:href="#T"/>
            <path fill="#5D2CE4" stroke="#000" stroke-linejoin="square" stroke-width=".4" d="M356.727 104.744L322.03 72.952l-103.906 35.65 39.56 32.124 99.044-35.982z"/>
        </g>
        <g transform="translate(3)">
            <use fill="#000" filter="url(#U)" xlink:href="#V"/>
            <path fill="#5D2CE4" stroke="#000" stroke-linejoin="square" stroke-width=".4" d="M279.461 83.264L224.385 50.05l-87.32 36.716 59.943 33.54 82.453-37.043z"/>
        </g>
        <g transform="translate(3)">
            <use fill="#000" filter="url(#W)" xlink:href="#X"/>
            <path fill="#5D2CE4" stroke="#000" stroke-linejoin="square" stroke-width=".4" d="M220.554 35.155L145.046.528l-70.77 37.78 80.376 34.951 65.902-38.104z"/>
        </g>
    </g>
</svg>
